<svg xmlns="http://www.w3.org/2000/svg" viewBox="0 0 65.76 40"><defs><style>.cls-1{fill:#25489c;}</style></defs><g id="圖層_2" data-name="圖層 2"><g id="圖層_1-2" data-name="圖層 1"><path class="cls-1" d="M21.33,10.81A15.59,15.59,0,0,0,20.17,7c-.15,2.89-1.86,3.62-2,3.72A6.74,6.74,0,0,1,19,11.84a7.83,7.83,0,0,1,.67,1.4,11.1,11.1,0,0,1,.64,3.28A16.2,16.2,0,0,1,18.81,24a18,18,0,0,1-5.2,6.58,14.77,14.77,0,0,0-3,2.78A10,10,0,0,0,9,36.91a5.93,5.93,0,0,0,0,3L9,40H21.49l0-18.1s0-.52,0-1.34C21.5,18.32,21.67,13.14,21.33,10.81Z"/><path class="cls-1" d="M16.87,5.37c-.23-3.65-4-5.93-7.42-5.25-4.64.78-8,5-8.94,9.39C-.23,13.36.1,17.34,0,21.25c0,0,0,5.7,0,5.71a4.83,4.83,0,0,1,.85-1.1c-.17-.4-.34-6.82,2.46-9.7h0a12.25,12.25,0,0,1,6.5-4C13.2,11.26,17.5,9.66,16.87,5.37ZM13.8,6.54a3.14,3.14,0,0,1-2.42,2.84h0c-1.59.42-3.22.13-4.81.62-2.95.54-5.43,3.4-5.58,3.56,0-3.29,1.16-7,3.92-9,2.17-1.55,5.93-2.72,8-.48h0A2.92,2.92,0,0,1,13.8,6.54Z"/><path class="cls-1" d="M8.68,28.24A4.52,4.52,0,0,0,6,25.8a3.45,3.45,0,0,0-.46-.12A4.56,4.56,0,0,0,.19,29,9,9,0,0,0,0,31.25C0,34.21,0,37,0,40a5.56,5.56,0,0,0,3.12-2.47,5.86,5.86,0,0,0,.3-.55h0c.17-.36.32-.72.46-1.08a16.43,16.43,0,0,1,2.87-4.45,12.61,12.61,0,0,1,4.15-2.51A3.36,3.36,0,0,0,8.68,28.24ZM5.62,29.62a.79.79,0,1,1,.78-.79A.78.78,0,0,1,5.62,29.62Z"/><path class="cls-1" d="M18.79,15.79a5.2,5.2,0,0,0-1.29-2.56,3.63,3.63,0,0,0-2.5-1h-.12c4.17,1.91,2.92,6.77-.27,8.92-2,1.3-5,.63-5.87-1.71-1.14-3.07,2.68-5.19,5.3-4.38a2.78,2.78,0,0,1,2,2.15c.89-1.14.32-2.48-.75-3.26-2.53-1.78-7.5,0-9.08,2.48-2.58,4.09,1.24,9.69,6,8A2.48,2.48,0,0,0,11,26.16a2.52,2.52,0,0,0,.54,2c1.11-2.28,3.58-3.51,5.27-5.4a8.74,8.74,0,0,0,2-3.76A7.43,7.43,0,0,0,18.79,15.79Z"/><path class="cls-1" d="M28.78,12.27c-3.69.27.73-4.25,2.56-4.83,3.9-1.62,9-.08,6.24,4.85,0,0-2,4.18-4.7,3.79,0,0-2.48-.42-.73-3.9,0,0,1.75-3,3.32-1.58,0,0,.94.93-.39,2.16,0,0-1.42.93-1.8.27,0,0,.22.89,2-.15a2,2,0,0,0,1-2.07s-.64-2-3.11-.83c0,0-2.31.81-3.34,4.46a2.65,2.65,0,0,0,.85,2.61,2.83,2.83,0,0,0,3.08.1c-.6.49-4.33,3.21-5.37-.33a.58.58,0,0,1,0,.18,1.93,1.93,0,0,0,0,.48A1.78,1.78,0,0,0,29,18.72a4.2,4.2,0,0,0,2.63.7,4.46,4.46,0,0,0,2.28-.76,10.85,10.85,0,0,0,2.25-1.8,12.93,12.93,0,0,0,2-2.69A12,12,0,0,0,39.38,11c.87-3-1.93-4.52-4.63-4.75a10.72,10.72,0,0,0-5.36,1.17A6.52,6.52,0,0,0,25.75,12C25.65,13.19,26.9,13.73,28.78,12.27Z"/><path class="cls-1" d="M62,15.62s.74,1.52-1.5,4.44c0,0-8.27,8.72-6.47,13.71,0,0-.26-3.55,3.92-8.24,0,0,3.21-4.27,3.84-5.33C61.78,20.2,63.82,17.63,62,15.62Z"/><path class="cls-1" d="M65.05,21.12a4.22,4.22,0,0,0-1.7-.32c-4.34-.22-8.69-.16-13-.1-7.78.11-15.56.21-23.33.41a2.84,2.84,0,0,1-.37.3c12-.12,21.2-.4,33.82-.13,1.13.13,4.85-.38,5.1.91,0,.43-.76.56-1.22.37a.87.87,0,0,0,1.38-.16A1.08,1.08,0,0,0,65.05,21.12Z"/><path class="cls-1" d="M30.32,24.13c-.08-1.39-2.74-.65-2.44.54a1.07,1.07,0,0,0,.64.64c.27.14.71.11.85.4s-.42.7-.81.77c-.56.15-1.46-.23-1.17-.91.09-.24-.34-.35-.43-.11a1,1,0,0,0,.07.87,1.73,1.73,0,0,0,2.63-.06c.39-.59,0-1.09-.61-1.21a1.11,1.11,0,0,1-.69-.38c-.25-.54.5-.87,1-.9s.54,0,.56.35.46.26.44,0Z"/><path class="cls-1" d="M31.76,24.25a20.39,20.39,0,0,0,2.21.06.2.2,0,1,0,0-.4c-.73,0-1.48,0-2.21-.05A.2.2,0,1,0,31.76,24.25Z"/><path class="cls-1" d="M33.25,23.12c-.43.63-3.36,4.15-1.08,3.73a1.85,1.85,0,0,0,.63-.58c.16-.21-.23-.41-.39-.2a1.4,1.4,0,0,1-.47.44s-.13,0-.16,0,0,0,0,0,0,0,0,0,0-.05,0,0,0,0,0-.06,0-.07,0-.09a12.22,12.22,0,0,1,1.88-3c.16-.21-.22-.41-.38-.2Z"/><path class="cls-1" d="M35.68,23.94c-.87.75-2,3.37.14,2.9,1-.55,1.42-1.73,2.13-2.61l-.39-.2a7.12,7.12,0,0,0-1.16,2.38.52.52,0,0,0,.18.46c.39.33.9-.18,1.12-.43s-.14-.46-.31-.28-.31.38-.54.42c.06,0,0,0,0,0s0,0,0,0,0,0,0,0,0,0,0,0l0-.05s0,.05,0,0v0A6.16,6.16,0,0,1,38,24.23c.15-.22-.24-.41-.39-.2a17.38,17.38,0,0,1-1.62,2.25.87.87,0,0,1-.59.26c.06,0-.05,0-.07,0s0,0-.06,0l-.11-.09c-.28-.58.39-1.62.83-2.11.26-.18,0-.56-.26-.34Z"/><path class="cls-1" d="M41.4,24.11c-1-.63-2.57.94-2.4,1.95a1.07,1.07,0,0,0,2,.28c.87-1.33,1.77-2.66,2.63-4,.14-.22-.24-.41-.39-.2l-2.48,3.78c-.2.38-.68.83-1.1.51-.78-.67.5-2.05,1.23-2.08H41c.06,0,0,0,0,0l.08,0c.06,0,0,0,0,0l.05,0s0,0,0,0c.21.17.52-.11.32-.28Z"/><path class="cls-1" d="M45.11,23c-.17.22-.36.58.08.56a.64.64,0,0,0,.33-.51.24.24,0,0,0-.41-.05Z"/><path class="cls-1" d="M44.53,24c-.49.8-1.09,1.55-1.51,2.38-.15.65.71.7,1.11.41.25-.15,0-.47-.23-.34a.74.74,0,0,1-.46.12s0,0,0,0h0s0-.07,0-.06c.37-.72,1-1.54,1.46-2.3.14-.23-.24-.42-.38-.2Z"/><path class="cls-1" d="M49,24.69c-.41-1.43-2.31-.51-2.76.42-.88,1.28.58,2.28,1.74,1.57a2,2,0,0,0,1-2c-.06-.24-.5-.15-.43.11.14.88-.93,2.09-1.87,1.6-.93-.65.67-2.25,1.5-2a.5.5,0,0,1,.37.44C48.67,25,49.1,24.94,49,24.69Z"/><path class="cls-1" d="M41.81,18.46c-.67-.82,0-2.6.66-2.92-1.29-.06-1.81,1.87-1.64,2.88.24,1.22,1.86,1,2.39.12C43.22,18.54,42.32,19.07,41.81,18.46Zm-.1-.66v-.05A.11.11,0,0,0,41.71,17.8Z"/><path class="cls-1" d="M41.65,15.42c-.44-1-2.39-.24-2.45-.17a2.81,2.81,0,0,0-1.62,2.25h0a1.72,1.72,0,0,0,2.23,1.76h0a2.15,2.15,0,0,0,1.31-1.11V17.9l-.08.07a.1.1,0,0,0,0-.1c-1.29,1.54-3.33-.09-1.81-1.56.42-.52,2.29-1.68,2.21-.2l.24-.12a.34.34,0,0,1,.1-.23A1.1,1.1,0,0,0,41.65,15.42Z"/><path class="cls-1" d="M46.12,15.52l0-.16a1.47,1.47,0,0,0-1.1-.38h0a2.83,2.83,0,0,0-2.24,3.49,1.06,1.06,0,0,0,.59.6,1.79,1.79,0,0,0,.8.17h0a1.93,1.93,0,0,0,1.39-.56l-.12-.33h0l0-.1c-1.24.6-1.74-.31-1.74-.31A1.91,1.91,0,0,1,44,16.38c.8-1.19,1.6-1.22,1.88-.61l.12-.06a.39.39,0,0,1,0,.09l0-.13.14-.07Z"/><path class="cls-1" d="M51.67,19.08a.92.92,0,0,1-1-.44,2.08,2.08,0,0,1-.18-.55c.05-1.35.82-1.66.82-1.66-.59-.21-1,.34-1.12.56h0a2.07,2.07,0,0,0,0,2,1.37,1.37,0,0,0,2.26-.31C51.91,19.18,51.67,19.08,51.67,19.08Z"/><path class="cls-1" d="M49.62,15.36c-1.82,0-3.9,3.1-1.63,3.87h0a2,2,0,0,0,2-.74l.19-.39-.19.09a1.67,1.67,0,0,0,.08-.2,1.53,1.53,0,0,1-1.19.51.93.93,0,0,1-.78-.78C48,16.6,49.85,15,50.72,16,50.61,15.28,49.62,15.36,49.62,15.36Z"/><path class="cls-1" d="M59.44,11.17a4.85,4.85,0,0,0-1.17-2.86c1.67,3.26-1.43,6.15-3.12,8.67-1.95,3-4.48,6.17-4.09,9.88a.74.74,0,0,1,0-.21v.21a15.33,15.33,0,0,1,3.1-5.44,31.06,31.06,0,0,0,2.16-2.86C59.9,13.2,59.44,11.17,59.44,11.17Z"/><path class="cls-1" d="M51.89,6.9c-.3,1.69-1.68,2.9-2.7,4.22-1.6,2-3.5,3.82-4,6.36-.16,1,.55,2,1.85,1-1.77.78-1.08-1.64-.41-2.35C48.27,14.1,52.83,9.56,51.89,6.9Z"/></g></g></svg>