<svg xmlns="http://www.w3.org/2000/svg" viewBox="0 0 21.55 40"><defs><style>.cls-1{fill:#fff;}</style></defs><g id="喇뒨쏛_2" data-name="喇뒨쏛 2"><g id="喇뒨쏛_1-2" data-name="喇뒨쏛 1"><path class="cls-1" d="M21.33,10.81A15.59,15.59,0,0,0,20.17,7c-.15,2.89-1.86,3.62-2,3.72A6.74,6.74,0,0,1,19,11.84a7.83,7.83,0,0,1,.67,1.4,11.1,11.1,0,0,1,.64,3.28A16.2,16.2,0,0,1,18.81,24a18,18,0,0,1-5.2,6.58,14.77,14.77,0,0,0-3,2.78A10,10,0,0,0,9,36.91a5.93,5.93,0,0,0,0,3L9,40H21.49l0-18.1s0-.52,0-1.34C21.5,18.32,21.67,13.14,21.33,10.81Z"/><path class="cls-1" d="M16.87,5.37c-.23-3.65-4-5.93-7.42-5.25-4.64.78-8,5-8.94,9.39C-.23,13.36.1,17.34,0,21.25c0,0,0,5.7,0,5.71a4.83,4.83,0,0,1,.85-1.1c-.17-.4-.34-6.82,2.46-9.7h0a12.25,12.25,0,0,1,6.5-4C13.2,11.26,17.5,9.66,16.87,5.37ZM13.8,6.54a3.14,3.14,0,0,1-2.42,2.84h0c-1.59.42-3.22.13-4.81.62-2.95.54-5.43,3.4-5.58,3.56,0-3.29,1.16-7,3.92-9,2.17-1.55,5.93-2.72,8-.48h0A2.92,2.92,0,0,1,13.8,6.54Z"/><path class="cls-1" d="M8.68,28.24A4.52,4.52,0,0,0,6,25.8a3.45,3.45,0,0,0-.46-.12A4.56,4.56,0,0,0,.19,29,9,9,0,0,0,0,31.25C0,34.21,0,37,0,40a5.56,5.56,0,0,0,3.12-2.47,5.86,5.86,0,0,0,.3-.55h0c.17-.36.32-.72.46-1.08a16.43,16.43,0,0,1,2.87-4.45,12.61,12.61,0,0,1,4.15-2.51A3.36,3.36,0,0,0,8.68,28.24ZM5.62,29.62a.79.79,0,1,1,.78-.79A.78.78,0,0,1,5.62,29.62Z"/><path class="cls-1" d="M18.79,15.79a5.2,5.2,0,0,0-1.29-2.56,3.63,3.63,0,0,0-2.5-1h-.12c4.17,1.91,2.92,6.77-.27,8.92-2,1.3-5,.63-5.87-1.71-1.14-3.07,2.68-5.19,5.3-4.38a2.78,2.78,0,0,1,2,2.15c.89-1.14.32-2.48-.75-3.26-2.53-1.78-7.5,0-9.08,2.48-2.58,4.09,1.24,9.69,6,8A2.48,2.48,0,0,0,11,26.16a2.52,2.52,0,0,0,.54,2c1.11-2.28,3.58-3.51,5.27-5.4a8.74,8.74,0,0,0,2-3.76A7.43,7.43,0,0,0,18.79,15.79Z"/></g></g></svg>