<svg xmlns="http://www.w3.org/2000/svg" viewBox="0 0 40.02 27.54"><defs><style>.cls-1{fill:#fff;}</style></defs><g id="圖層_2" data-name="圖層 2"><g id="圖層_1-2" data-name="圖層 1"><path class="cls-1" d="M3,6c-3.69.27.73-4.25,2.55-4.83,3.91-1.62,9.05-.07,6.25,4.85,0,0-2,4.18-4.7,3.8,0,0-2.48-.43-.73-3.91,0,0,1.75-3,3.32-1.58,0,0,.94.93-.39,2.16,0,0-1.43.93-1.8.27,0,0,.22.89,2-.15a2,2,0,0,0,1-2.07s-.64-2-3.11-.83c0,0-2.31.81-3.34,4.46a2.65,2.65,0,0,0,.85,2.61,2.83,2.83,0,0,0,3.08.1c-.6.49-4.33,3.21-5.37-.33a.72.72,0,0,1,0,.19,1.83,1.83,0,0,0,0,.47,1.78,1.78,0,0,0,.66,1.24,4.2,4.2,0,0,0,2.63.7,4.46,4.46,0,0,0,2.28-.76,10.85,10.85,0,0,0,2.25-1.8,12.93,12.93,0,0,0,2-2.69,11.9,11.9,0,0,0,1.22-3.16C14.51,1.73,11.71.26,9,0A10.72,10.72,0,0,0,3.65,1.2,6.54,6.54,0,0,0,0,5.78C-.09,7,1.16,7.5,3,6Z"/><path class="cls-1" d="M36.25,9.39s.74,1.52-1.5,4.44c0,0-8.28,8.72-6.47,13.71,0,0-.26-3.55,3.92-8.24,0,0,3.21-4.27,3.84-5.33C36,14,38.08,11.4,36.25,9.39Z"/><path class="cls-1" d="M39.31,14.89a4.4,4.4,0,0,0-1.7-.32c-4.34-.22-8.69-.16-13-.09-7.78.1-15.56.2-23.33.4a2.84,2.84,0,0,1-.37.3c12-.12,21.2-.4,33.82-.13,1.13.13,4.85-.38,5.1.91,0,.44-.76.56-1.22.37A.87.87,0,0,0,40,16.17,1.08,1.08,0,0,0,39.31,14.89Z"/><path class="cls-1" d="M4.58,17.9c-.09-1.39-2.74-.65-2.44.54a1,1,0,0,0,.64.64c.27.14.71.11.85.4s-.42.7-.81.78c-.56.14-1.46-.24-1.17-.92.09-.24-.34-.35-.43-.11a1,1,0,0,0,.07.87A1.73,1.73,0,0,0,3.92,20c.39-.58,0-1.09-.61-1.21a1.11,1.11,0,0,1-.69-.38c-.25-.54.5-.87,1-.89s.54,0,.56.34.46.26.44,0Z"/><path class="cls-1" d="M6,18a20.39,20.39,0,0,0,2.21.06.2.2,0,1,0,0-.4c-.73,0-1.48,0-2.21-.05A.2.2,0,1,0,6,18Z"/><path class="cls-1" d="M7.51,16.89c-.43.63-3.36,4.15-1.08,3.73A1.84,1.84,0,0,0,7.06,20c.16-.21-.23-.41-.39-.19a1.47,1.47,0,0,1-.47.43s-.13,0-.16,0,0,0,0,0,0,0,0,0,0-.05,0,0,0,0,0-.06,0-.07,0-.09a12.22,12.22,0,0,1,1.88-3c.16-.21-.22-.41-.38-.2Z"/><path class="cls-1" d="M9.94,17.71c-.87.75-2,3.37.13,2.9,1.06-.55,1.43-1.73,2.14-2.61l-.39-.2a7.07,7.07,0,0,0-1.16,2.39.48.48,0,0,0,.18.45c.39.33.9-.18,1.12-.43s-.14-.46-.31-.28-.31.39-.54.42h0s0,0,0,0,0,0,0,0,0,0,0,0l0-.05s0,.05,0,0a0,0,0,0,0,0,0A6.35,6.35,0,0,1,12.21,18c.15-.22-.24-.41-.39-.2a17.38,17.38,0,0,1-1.62,2.25.87.87,0,0,1-.59.26c.06,0,0,0-.07,0s0,0-.06,0-.07-.05-.11-.09c-.28-.57.39-1.62.83-2.11.26-.18,0-.56-.26-.34Z"/><path class="cls-1" d="M15.65,17.88c-1-.63-2.56.94-2.39,1.95a1.07,1.07,0,0,0,2,.28c.87-1.33,1.77-2.66,2.63-4,.14-.22-.24-.41-.39-.19L15,19.69c-.2.38-.68.83-1.1.51-.78-.67.5-2.05,1.23-2.08h.05c.06,0,0,0,0,0l.08,0c.06,0,0,0,0,0l0,0c.05,0,0,0,0,0,.21.17.52-.11.31-.28Z"/><path class="cls-1" d="M19.37,16.74c-.17.22-.36.58.08.56a.62.62,0,0,0,.33-.51.24.24,0,0,0-.41-.05Z"/><path class="cls-1" d="M18.79,17.73c-.49.8-1.09,1.55-1.51,2.38-.15.65.71.71,1.1.41.26-.15,0-.47-.22-.34a.74.74,0,0,1-.46.12s0,0,0,0h0s0-.07,0-.06c.37-.72,1-1.54,1.46-2.3.14-.22-.24-.42-.38-.2Z"/><path class="cls-1" d="M23.3,18.46c-.41-1.43-2.31-.5-2.76.42-.88,1.28.58,2.28,1.74,1.57a2,2,0,0,0,1-2c-.06-.24-.5-.15-.43.11.14.88-.93,2.09-1.87,1.6-.93-.65.67-2.25,1.5-2a.5.5,0,0,1,.37.44C22.93,18.82,23.36,18.71,23.3,18.46Z"/><path class="cls-1" d="M16.07,12.23c-.67-.82,0-2.6.66-2.92-1.29-.06-1.81,1.87-1.64,2.88.24,1.22,1.86,1,2.39.12C17.48,12.31,16.58,12.84,16.07,12.23Zm-.1-.66v-.05A.09.09,0,0,0,16,11.57Z"/><path class="cls-1" d="M15.91,9.19c-.44-1-2.4-.24-2.45-.17a2.81,2.81,0,0,0-1.62,2.25h0a1.73,1.73,0,0,0,2.23,1.77h0a2.15,2.15,0,0,0,1.31-1.11v-.27l-.08.07a.1.1,0,0,0-.05-.1c-1.29,1.54-3.33-.09-1.81-1.56.42-.52,2.29-1.68,2.21-.2l.24-.12a.34.34,0,0,1,.1-.23A1.1,1.1,0,0,0,15.91,9.19Z"/><path class="cls-1" d="M20.38,9.29l0-.16a1.47,1.47,0,0,0-1.1-.38h0a2.83,2.83,0,0,0-2.24,3.49,1.06,1.06,0,0,0,.59.6,1.79,1.79,0,0,0,.8.17h0a1.93,1.93,0,0,0,1.39-.56l-.12-.33h0l0-.1c-1.24.6-1.74-.31-1.74-.31a1.93,1.93,0,0,1,.29-1.56c.8-1.19,1.6-1.22,1.88-.61l.12-.06,0,.09,0-.12.14-.08Z"/><path class="cls-1" d="M25.93,12.85a.91.91,0,0,1-.95-.44,2.08,2.08,0,0,1-.18-.55c.05-1.35.82-1.66.82-1.66-.6-.21-1,.34-1.12.56h0a2,2,0,0,0,0,2,1.37,1.37,0,0,0,2.26-.31C26.17,13,25.93,12.85,25.93,12.85Z"/><path class="cls-1" d="M23.88,9.13c-1.82,0-3.9,3.1-1.63,3.88h0a2.05,2.05,0,0,0,2-.75l.19-.39-.19.09a1.67,1.67,0,0,0,.08-.2,1.53,1.53,0,0,1-1.19.51.93.93,0,0,1-.78-.78c-.13-1.12,1.77-2.68,2.64-1.7C24.87,9.06,23.88,9.13,23.88,9.13Z"/><path class="cls-1" d="M33.7,4.94a4.85,4.85,0,0,0-1.17-2.86c1.67,3.26-1.43,6.16-3.12,8.67-1.95,3-4.48,6.17-4.09,9.88a.74.74,0,0,1,0-.21v.21a15.33,15.33,0,0,1,3.1-5.44,31.06,31.06,0,0,0,2.16-2.86C34.16,7,33.7,4.94,33.7,4.94Z"/><path class="cls-1" d="M26.15.67c-.3,1.69-1.68,2.9-2.7,4.22-1.6,2-3.5,3.82-4,6.36-.16,1,.55,2,1.85,1-1.77.78-1.08-1.64-.41-2.35C22.53,7.88,27.09,3.33,26.15.67Z"/></g></g></svg>