<svg xmlns="http://www.w3.org/2000/svg" viewBox="0 0 63.36 16.92"><defs><style>.cls-1{opacity:0.8;}.cls-2,.cls-3,.cls-4{fill:#fff;}.cls-3{opacity:0.6;}.cls-4{opacity:0.7;}</style></defs><g id="圖層_2" data-name="圖層 2"><g id="圖層_1-2" data-name="圖層 1"><g class="cls-1"><path class="cls-2" d="M3.36,1.82c0,.08-.09.12-.2.12h-1v.42h.58L3.1,2s.37.26.61.45a.19.19,0,0,1-.2.13h-.8v.25c0,.07,0,.1.08.1H3.2l.12,0h.1c.14,0,.19.09.19.19s-.16.26-.71.26a4.89,4.89,0,0,1,.52.38.18.18,0,0,1-.19.13H2.14v.38l1.3-.13v.12A23.75,23.75,0,0,1,.83,4.9a.24.24,0,0,1-.18.16L.3,4.36c.29,0,.73,0,1.24-.07V3.87H.67L.61,3.65h.93V3.1l.66.07a.78.78,0,0,1,0-.24V2.59H1.74c-.18.48-.57.82-1.44,1L.2,3.49a1.21,1.21,0,0,0,.91-.9H.37L.3,2.36H1.58V1.94H.63L.56,1.72h1v-.4H1.31V.85H.06L0,.63H1.31V0l1,.09C2.26.2,2.2.27,2,.28V.63h.51L2.87.21s.39.29.62.51a.19.19,0,0,1-.2.13H2v.31s-.07.06-.18.1l.54.05c0,.09-.07.14-.2.16v.25h.27l.31-.37S3.13,1.62,3.36,1.82Zm3.5,3.77a.18.18,0,0,1-.2.12H3.18l.44.19c0,.07-.14.14-.36.09a8.33,8.33,0,0,1-1.38.39c.81,0,2,0,3.17-.07-.19-.13-.41-.28-.63-.41l0-.1c2.45.27,2,1.54,1.39,1.25a4.59,4.59,0,0,0-.58-.55c-1,.13-2.37.3-4,.46a.42.42,0,0,1-.16.12l-.3-.73.21,0a5,5,0,0,0,1.51-.6H.26L.2,5.49H5.71L6.12,5S6.57,5.35,6.86,5.59ZM5.68,4.9a.18.18,0,0,1-.2.12H1.75L1.69,4.8H4.56L5,4.34S5.4,4.66,5.68,4.9ZM2.14,3.36v.29h.41l.27-.29h-.2a.56.56,0,0,1-.33-.07A.35.35,0,0,1,2.14,3.36Zm2.14-.5a5.6,5.6,0,0,0,0-.6H3.74L3.67,2h.66V1.31l.35,0V.85h-1L3.65.63h1V0l1,.09c0,.09-.07.16-.22.17V.63H6L6.37.14s.42.34.65.58c0,.09-.08.13-.19.13H5.43v.36c0,.05-.24.14-.47.16l.24,0c0,.09-.08.16-.24.19l0,.45h.47l.33-.34.62.5a.48.48,0,0,1-.27.11,2.85,2.85,0,0,0,.29,1.75s.06,0,.1,0a5.81,5.81,0,0,0,.2-.56l.09,0-.07.74c.14.17.19.31.12.43s-.5.14-.71,0a3.24,3.24,0,0,1-.62-2.36H4.93a3.69,3.69,0,0,1-.11.83c.84.46.53,1.12.1.89a2.12,2.12,0,0,0-.28-.4A2.43,2.43,0,0,1,3.26,4.72L3.17,4.6a2.1,2.1,0,0,0,1-1.4,5,5,0,0,0-.51-.34l0-.11A3.14,3.14,0,0,1,4.28,2.86Z"/><path class="cls-2" d="M10.64,3.32v3.6a.87.87,0,0,1-.57.2H10V3.73a6.24,6.24,0,0,1-.85.78L9,4.43a10,10,0,0,0,1.42-2.71l.91.48c-.05.07-.11.12-.3.09-.14.23-.32.49-.52.76l.36.13C10.85,3.25,10.78,3.3,10.64,3.32ZM11,.62A6.8,6.8,0,0,1,9.17,2.25l-.08-.08A7.5,7.5,0,0,0,10.39.06l.9.47C11.24.61,11.17.65,11,.62ZM11.81,3v.67a3.35,3.35,0,0,1-.89,2.54l-.11-.09a5,5,0,0,0,.48-2.46V2.77l.78.08C12.06,2.94,12,3,11.81,3Zm2.34-1.16A.18.18,0,0,1,14,2H12.84V6.79c0,.08-.27.24-.52.24H12.2V2h-1l-.06-.22H12.2V.08l.93.1c0,.11-.09.19-.29.22V1.78h.37l.33-.45S13.93,1.65,14.15,1.88Zm-.78-.67A1.94,1.94,0,0,0,13,.38l.09,0C14.32.75,13.8,1.59,13.37,1.21ZM13.74,3V5.21c0,.07,0,.11.06.11H14a.31.31,0,0,0,.13,0h.07l0,0c.14,0,.2.09.2.21s-.19.29-.64.29h-.18c-.37,0-.41-.14-.41-.45V2.77l.75.08C14,3,13.87,3,13.74,3Zm2.52-.41q0,.12-.21.12h-.64V6.22c0,.5-.1.83-.89.9a1,1,0,0,0-.11-.48.94.94,0,0,0-.54-.23V6.3l.71,0c.12,0,.15,0,.15-.14V2.75H14l-.06-.22h1.25l.4-.52S16,2.37,16.26,2.63ZM16.11.94a.2.2,0,0,1-.21.12H14.14L14.08.84H15L15.4.33S15.85.68,16.11.94Z"/><path class="cls-3" d="M19.09,4a.79.79,0,1,1,.79.79A.78.78,0,0,1,19.09,4Z"/><path class="cls-2" d="M26.9,1.51c0,.08-.09.12-.2.12h-3l-.06-.22h2.27L26.24,1S26.65,1.27,26.9,1.51Zm-.37,1c0,.09-.1.12-.2.12H24l-.06-.22h1.68L25.91,2A8,8,0,0,1,26.53,2.53Zm0,1a.18.18,0,0,1-.2.12H24l-.06-.22h1.68L25.91,3A8,8,0,0,1,26.53,3.55ZM24.09,7.06H24V4.17l.68.29h.93l.32-.35.7.53a.56.56,0,0,1-.31.14V6.59a.9.9,0,0,1-.54.2h-.11V6.36h-1v.49C24.63,6.91,24.36,7.06,24.09,7.06Zm.83-5.86a2.36,2.36,0,0,0-.55-1l.07,0C26.21.35,25.61,1.66,24.92,1.2Zm.74,3.48h-1V6.14h1Zm1.42-.93h-.4l-.07-.22h2.51l.42-.4.68.63c-.06.08-.13.1-.32.11a5.11,5.11,0,0,1-1.16,1.74,5.79,5.79,0,0,0,1.91.72v.08A.82.82,0,0,0,30,7a4.83,4.83,0,0,1-1.76-1,6.42,6.42,0,0,1-2.43,1.09L25.78,7a6,6,0,0,0,2.16-1.35A4.94,4.94,0,0,1,27.08,3.75Zm0-3.5.78.3h.79L29,.18l.67.55a.46.46,0,0,1-.28.11v1.4c0,.09,0,.12.13.12h.61l.15,0h.11c.16.06.23.13.23.26s-.23.39-.94.39h-.38c-.5,0-.57-.14-.57-.55V.77h-1v.39A2.3,2.3,0,0,1,26.4,3.42l-.07-.1a2.75,2.75,0,0,0,.79-2.16V.25Zm2,3.5H27.24a3.35,3.35,0,0,0,1,1.53A5,5,0,0,0,29.13,3.75Z"/><path class="cls-2" d="M36.54,1.51c0,.08-.1.12-.21.12h-3.5l-.06-.22h2.66l.39-.5S36.27,1.25,36.54,1.51Zm-.37,1c0,.09-.09.12-.2.12H33.16L33.1,2.4h2l.37-.48S35.91,2.26,36.17,2.5Zm0,1c0,.08-.09.12-.2.12H33.16L33.1,3.4h2l.37-.48S35.91,3.25,36.17,3.5ZM33.3,7h-.1V4.14l.69.29h1.23l.34-.37.72.55a.56.56,0,0,1-.31.16V6.54a.92.92,0,0,1-.57.2h-.1V6.33H33.86v.45C33.86,6.85,33.57,7,33.3,7Zm1-5.79a2.25,2.25,0,0,0-.55-1.1l.07,0C35.66.32,35,1.7,34.34,1.21Zm.86,3.44H33.86V6.11H35.2ZM38.13.37v2.4h.51l.4-.53s.47.37.74.63c0,.08-.1.12-.2.12H38.13V6.83c0,.08-.3.25-.58.25h-.13V3H36.2l-.06-.22h1.28V.05l1,.11C38.39.27,38.34.34,38.13.37Z"/><path class="cls-3" d="M42.73,4a.79.79,0,1,1,.79.79A.78.78,0,0,1,42.73,4Z"/><path class="cls-2" d="M52.81.31c0,.09-.12.16-.29.17a10.61,10.61,0,0,1-.38,1.24h1.07l.43-.55s.48.39.76.65c0,.09-.09.12-.2.12h-.44a6.88,6.88,0,0,1-1,3.06,4.59,4.59,0,0,0,1.71,1.41l0,.07a.77.77,0,0,0-.65.59,4.26,4.26,0,0,1-1.4-1.61,6,6,0,0,1-2.64,1.65L49.7,7a5.56,5.56,0,0,0,2.41-2.18,10.14,10.14,0,0,1-.49-2,6.51,6.51,0,0,1-.9,1.23L50.61,4a9.6,9.6,0,0,0,.67-1.69c0,.08-.09.12-.19.12H49.9c-.23.27-.48.54-.75.8h.65l.35-.37.67.58a.46.46,0,0,1-.31.09,7.37,7.37,0,0,1-.82.5l.21,0c0,.1-.09.16-.26.19v.36l1.48-.21v.12L49.64,5V6.22c0,.51-.1.81-1,.89a.89.89,0,0,0-.17-.49,1.12,1.12,0,0,0-.65-.24V6.27l.94,0c.12,0,.16,0,.16-.13V5.23l-1.14.32a.3.3,0,0,1-.2.18l-.32-.79c.35,0,.94-.1,1.66-.2V4l.41,0a4.53,4.53,0,0,0,.38-.55h-.84A8.45,8.45,0,0,1,47.2,4.65l-.07-.09a8.57,8.57,0,0,0,1.26-1.08h-.78l-.07-.22H48.6a9.49,9.49,0,0,0,.65-.8h-2l-.06-.23h1.38v-1h-1L47.52,1h1.06V0l1,.08c0,.12-.08.19-.28.22V1h.08l.33-.45.47.41a8.91,8.91,0,0,0,.38-.85l.88.41c0,.09-.13.13-.32.1a9,9,0,0,1-1,1.57h.25l.34-.43s.38.31.61.54A13.09,13.09,0,0,0,51.75.05Zm-3.54,1v1h.14a11.18,11.18,0,0,0,.61-1ZM53,1.94h-.9a7.17,7.17,0,0,1-.3.69,6.63,6.63,0,0,0,.62,1.74A7.67,7.67,0,0,0,53,1.94Z"/><path class="cls-2" d="M63.36,1.06c0,.08-.1.12-.22.12H59.5a11.42,11.42,0,0,1-1.54,1c.87,0,2.25,0,3.72-.08a6.06,6.06,0,0,0-.9-.71l.06-.07c2.56.37,2.3,2,1.5,1.63a2.56,2.56,0,0,0-.49-.66c-1,.15-2.39.34-4,.51a.41.41,0,0,1-.23.21l-.29-.86a1,1,0,0,0,.25-.08,5,5,0,0,0,1.08-.87h-2L56.55,1h2.28a6.24,6.24,0,0,0,.74-1l1,.39a.28.28,0,0,1-.31.13,5.78,5.78,0,0,1-.5.44h2.36l.43-.53S63.05.79,63.36,1.06Zm-5.5,1.85.84.32h2.67l.34-.4.78.59a.5.5,0,0,1-.32.16V6.26c0,.47-.12.77-1,.84A.65.65,0,0,0,61,6.64a1.29,1.29,0,0,0-.68-.24V6.29s.79.06,1,.06.17-.06.17-.16V5.07a20.87,20.87,0,0,1-2.51.87.33.33,0,0,1-.19.18l-.3-.67A2.71,2.71,0,0,1,57,7.12L56.87,7a3.41,3.41,0,0,0,1-2.72V2.91Zm.71,1.41a4.53,4.53,0,0,1-.09,1c.66-.07,1.83-.23,3-.45V3.45H58.57v.43c2.93-.24,2.83,1,2.2.86a8.1,8.1,0,0,0-2.2-.68Z"/><path class="cls-2" d="M3.57,15.66s0,0,0,0H2.08c-.09,0-.13,0-.13-.05s.09,0,.27-.05h.1c.05,0,.07,0,.07,0s0-.08-.05-.2l-.1-.3-.12-.38H1.25l-.16.42L1,15.4a.23.23,0,0,0,0,.11c0,.05,0,.09.1.1l.23,0s.06,0,.06,0,0,0-.08,0H.45s-.07,0-.07-.05,0,0,.15,0,.2,0,.23-.07a1.51,1.51,0,0,0,.17-.4c.06-.15.15-.38.26-.69l.57-1.56.11-.32c0-.1.06-.16.08-.16s.05.08.11.22.33.91.82,2.18c.06.16.12.32.19.49a.48.48,0,0,0,.15.26.6.6,0,0,0,.29,0S3.57,15.63,3.57,15.66ZM2.08,14.57l0-.09c-.12-.36-.22-.62-.27-.76l-.06-.18,0-.09c-.05.14-.12.32-.2.56l-.2.56h.8Z"/><path class="cls-2" d="M5.46,14a.29.29,0,0,1-.08.22.25.25,0,0,1-.2.09c-.17,0-.25-.08-.25-.24A.29.29,0,0,1,5,13.89a0,0,0,0,0,0,0s0,0-.06,0-.18.08-.24.24a3,3,0,0,0,0,.69v.75a.13.13,0,0,0,.13.14H5s0,0,0,0,0,0,0,0H3.74s-.05,0-.05,0,0,0,.07,0a.49.49,0,0,0,.23,0,.36.36,0,0,0,0-.21V14.14a.43.43,0,0,0,0-.22.29.29,0,0,0-.2-.07H3.64a0,0,0,0,1,0,0,0,0,0,0,1,0,0h.18a2.28,2.28,0,0,0,.77-.15.69.69,0,0,1,0,.22V14a.84.84,0,0,1,.19-.32.4.4,0,0,1,.27-.09.33.33,0,0,1,.26.1A.32.32,0,0,1,5.46,14Z"/><path class="cls-2" d="M7.4,15.41a.21.21,0,0,1-.09.13.87.87,0,0,1-.64.22.56.56,0,0,1-.49-.18.27.27,0,0,1,0-.13s0-.15,0-.31v-.23a1.15,1.15,0,0,0,0-.19v-.85c0-.06,0-.09,0-.1H6c-.09,0-.14,0-.14,0s0,0,0,0a1,1,0,0,0,.76-.47c0-.05,0-.07.06-.07s0,0,0,.07a1.41,1.41,0,0,0,0,.43.38.38,0,0,0,.23,0,1,1,0,0,0,.28,0h0s0,0,0,0,0,.07-.06.07H6.75v.1c0,.83,0,1.32,0,1.46s.12.27.26.27a.45.45,0,0,0,.26-.14s.08-.07.1-.07S7.4,15.39,7.4,15.41Z"/><path class="cls-4" d="M12.2,12.48h.16v3.29H12.2Z"/><path class="cls-4" d="M36.81,12.48H37v3.29h-.16Z"/><path class="cls-2" d="M20.44,14.07a1.7,1.7,0,0,1-.24.92,1.46,1.46,0,0,1-.74.59,2.71,2.71,0,0,1-1,.13H17.34s-.07,0-.07,0,.05,0,.13,0,.22,0,.25-.07a1.14,1.14,0,0,0,0-.28V12.9a.64.64,0,0,0,0-.26c0-.05-.11-.08-.24-.08s-.1,0-.1,0,0,0,.06,0h1.21a2,2,0,0,1,1.3.36A1.46,1.46,0,0,1,20.44,14.07Zm-.81,0a2.2,2.2,0,0,0-.23-1.13.79.79,0,0,0-.72-.36.49.49,0,0,0-.23,0,.25.25,0,0,0-.08.22v2.4c0,.2,0,.32,0,.34a.44.44,0,0,0,.25.05C19.31,15.63,19.63,15.11,19.63,14.07Z"/><path class="cls-2" d="M22.72,15.14a.54.54,0,0,1-.12.27.82.82,0,0,1-.69.36,1.08,1.08,0,0,1-.78-1.83,1,1,0,0,1,.73-.31.92.92,0,0,1,.51.13.69.69,0,0,1,.31.42,1,1,0,0,1,0,.2l-.86,0h-.29c0,.11,0,.2,0,.28a1.07,1.07,0,0,0,.23.77.45.45,0,0,0,.33.14.56.56,0,0,0,.32-.11.73.73,0,0,0,.23-.29q0-.09.06-.09S22.72,15.12,22.72,15.14Zm-.59-.82a1.48,1.48,0,0,0-.05-.5.2.2,0,0,0-.2-.14c-.19,0-.3.21-.33.64h.58Z"/><path class="cls-2" d="M24.66,15.06a.73.73,0,0,1-.19.51.66.66,0,0,1-.5.19,1,1,0,0,1-.35-.07l-.22-.06a.12.12,0,0,0-.12.06c0,.05,0,.07,0,.07a0,0,0,0,1,0,0s0-.05,0-.09a2.37,2.37,0,0,0,0-.31V15.1s0,0,0,0,0,0,0,.07a.68.68,0,0,0,.23.41.7.7,0,0,0,.44.17.34.34,0,0,0,.35-.35.25.25,0,0,0-.09-.2,1.16,1.16,0,0,0-.35-.16,1.2,1.2,0,0,1-.51-.28.61.61,0,0,1-.16-.42.67.67,0,0,1,.19-.47.62.62,0,0,1,.46-.19,1.67,1.67,0,0,1,.35.06h.06c.07,0,.12,0,.15-.13l0,0s0,0,0,.06v.09s0,0,0,.06,0,.26,0,.39v0s0,0,0,0,0,0,0-.05a.55.55,0,0,0-.55-.47.37.37,0,0,0-.26.08.3.3,0,0,0-.1.22.23.23,0,0,0,.09.19,1.3,1.3,0,0,0,.32.16,1.58,1.58,0,0,1,.58.3A.53.53,0,0,1,24.66,15.06Z"/><path class="cls-2" d="M26.35,15.68s0,0,0,0H25.13s-.06,0-.06,0,0,0,.11,0a.4.4,0,0,0,.19,0s0-.08,0-.19V14.09a.45.45,0,0,0,0-.22.31.31,0,0,0-.18,0h-.11s0,0,0,0,0,0,.07,0a2.56,2.56,0,0,0,.88-.16s0,.14,0,.31v1.47c0,.13,0,.2,0,.22a.45.45,0,0,0,.24,0S26.35,15.66,26.35,15.68Zm-.33-3a.32.32,0,0,1-.09.23.31.31,0,0,1-.44,0,.29.29,0,0,1,0-.44.34.34,0,0,1,.23-.08.33.33,0,0,1,.22.08A.32.32,0,0,1,26,12.71Z"/><path class="cls-2" d="M29.18,13.93c0,.17-.08.25-.24.25s-.22-.07-.22-.2a.24.24,0,0,1,0-.08.18.18,0,0,0,0-.06c0-.05,0-.08-.08-.08a.14.14,0,0,0-.1.05.13.13,0,0,0-.05.11.33.33,0,0,0,0,.1.75.75,0,0,1,.09.33.71.71,0,0,1-.32.58,1,1,0,0,1-.61.18,1.22,1.22,0,0,1-.34-.06l-.09,0a.2.2,0,0,0-.15.06.16.16,0,0,0-.06.13c0,.12.09.17.26.17s.33,0,.6-.05l.19,0a.71.71,0,0,1,.48.16.54.54,0,0,1,.17.44.85.85,0,0,1-.35.73,1.51,1.51,0,0,1-1,.27,1.3,1.3,0,0,1-.67-.15.44.44,0,0,1-.24-.4c0-.26.19-.42.57-.47-.23-.09-.34-.23-.34-.41s.14-.42.44-.51a.67.67,0,0,1-.43-.62.66.66,0,0,1,.27-.53,1.05,1.05,0,0,1,.67-.21.94.94,0,0,1,.7.25.53.53,0,0,1,.42-.23C29.07,13.64,29.18,13.74,29.18,13.93Zm-.65,2.26c0-.23-.14-.34-.41-.34a2.7,2.7,0,0,0-.51.05l-.34,0H27.2a.56.56,0,0,0-.13.39c0,.33.21.49.64.49a.91.91,0,0,0,.58-.18A.54.54,0,0,0,28.53,16.19Zm-.45-1.8c0-.48-.12-.71-.34-.71s-.35.21-.35.64a1.26,1.26,0,0,0,.09.56.28.28,0,0,0,.28.17.26.26,0,0,0,.25-.14A1.49,1.49,0,0,0,28.08,14.39Z"/><path class="cls-2" d="M31.91,15.68s0,0-.11,0h-1c-.05,0-.07,0-.07,0s0,0,.06,0h0c.08,0,.13,0,.14,0s0-.09,0-.21V14.5a1.68,1.68,0,0,0-.06-.6.23.23,0,0,0-.2-.08.32.32,0,0,0-.23.09.3.3,0,0,0-.1.22v1.41a.15.15,0,0,0,0,.08l.16,0s0,0,0,0,0,0,0,0H29.5s-.06,0-.06,0,0,0,.15,0,.15,0,.16-.06l0-.07V14.45c0-.3,0-.46,0-.47s-.05-.07-.13-.07h-.16s-.07,0-.07,0,0,0,.05,0a1.78,1.78,0,0,0,.84-.22.06.06,0,0,1,.05,0s0,0,0,.07V14a.73.73,0,0,1,.63-.32.52.52,0,0,1,.53.28.91.91,0,0,1,.06.26c0,.09,0,.29,0,.6v.67a.53.53,0,0,0,0,.18.42.42,0,0,0,.16,0C31.87,15.64,31.91,15.65,31.91,15.68Z"/><path class="cls-2" d="M44.79,14.89v.43c0,.15,0,.26,0,.33v.09q-1.24-.06-2.16,0h-.4s-.08,0-.08,0,0,0,0,0h.14c.15,0,.23-.05.24-.13a.53.53,0,0,0,0-.13V12.69s0-.08,0-.1a.34.34,0,0,0-.17,0c-.1,0-.15,0-.15,0s0,0,.13,0h.36c.57,0,1,0,1.41,0h.31l.26,0,0,.51c0,.16,0,.26,0,.3s0,.05-.05.05,0,0-.06-.12a.59.59,0,0,0-.26-.47,1.12,1.12,0,0,0-.64-.15h-.45V14a1.54,1.54,0,0,0,.65-.07c.09-.05.15-.18.18-.4s0-.17.07-.17,0,0,0,.08,0,.17,0,.35a1.63,1.63,0,0,0,0,.24c0,.26,0,.47,0,.6a.17.17,0,0,1,0,.07s0,.06,0,.06a.06.06,0,0,1,0,0,1.16,1.16,0,0,0,0-.15,1,1,0,0,0-.12-.42.65.65,0,0,0-.38-.08h-.32v1.57h.3c.34,0,.55,0,.63,0a.74.74,0,0,0,.27-.1.56.56,0,0,0,.16-.2,3.21,3.21,0,0,0,.1-.4c0-.05,0-.07,0-.07S44.79,14.84,44.79,14.89Z"/><path class="cls-2" d="M47.57,15.62s0,0-.09,0h-.21a1.05,1.05,0,0,0-.48.11h0s0,0,0-.09a.89.89,0,0,0,0-.11.65.65,0,0,1-.49.2.84.84,0,0,1-.68-.31,1.11,1.11,0,0,1-.27-.77,1.1,1.1,0,0,1,.27-.77,1,1,0,0,1,.72-.29.57.57,0,0,1,.47.22v-.66a1.55,1.55,0,0,0,0-.5s-.1-.07-.24-.07-.13,0-.13,0,0,0,.06,0a2.76,2.76,0,0,0,.82-.12l.08,0s.05,0,.05.11v2.92a.13.13,0,0,0,0,.1s.07,0,.16,0S47.57,15.59,47.57,15.62Zm-.86-.42v-1a.56.56,0,0,0-.07-.32.3.3,0,0,0-.25-.13c-.3,0-.45.34-.45,1a1.61,1.61,0,0,0,.12.69.34.34,0,0,0,.32.24.35.35,0,0,0,.23-.11A.49.49,0,0,0,46.71,15.2Z"/><path class="cls-2" d="M50.37,15.56s0,0-.08,0a5.18,5.18,0,0,0-.59,0,.78.78,0,0,0-.28.11.06.06,0,0,1-.05,0s0,0,0,0v-.27a.87.87,0,0,1-.64.31.62.62,0,0,1-.48-.19.68.68,0,0,1-.11-.45V13.91a.19.19,0,0,0,0-.13s-.08,0-.17,0-.12,0-.12,0,0,0,.06,0h.9v.5c0,.25,0,.42,0,.54s0,.16,0,.14a1.76,1.76,0,0,0,.07.62.21.21,0,0,0,.2.12.39.39,0,0,0,.29-.17.25.25,0,0,0,0-.11,1.5,1.5,0,0,0,0-.26v-.81a3.37,3.37,0,0,0,0-.41c0-.06,0-.09-.11-.09H49.1s-.07,0-.07,0,.09,0,.26,0H50V15.2a1.43,1.43,0,0,0,0,.26s0,0,.07,0h.25S50.37,15.53,50.37,15.56Z"/><path class="cls-2" d="M52.29,14.11a.24.24,0,0,1-.07.18.19.19,0,0,1-.16.07c-.17,0-.25-.07-.25-.22a.35.35,0,0,1,0-.13.36.36,0,0,0,0-.11.18.18,0,0,0-.07-.15.2.2,0,0,0-.16-.07c-.29,0-.43.32-.43,1a1.24,1.24,0,0,0,.19.78.41.41,0,0,0,.35.17.6.6,0,0,0,.45-.28s0,0,0,0,0,0,0,0-.05.14-.17.25a.82.82,0,0,1-.58.23,1,1,0,0,1-.72-.3,1,1,0,0,1-.3-.74,1.06,1.06,0,0,1,.32-.78,1,1,0,0,1,.77-.32.82.82,0,0,1,.5.14A.4.4,0,0,1,52.29,14.11Z"/><path class="cls-2" d="M54.74,15.46a.16.16,0,0,1-.07.1.69.69,0,0,1-.5.19.43.43,0,0,1-.28-.08.49.49,0,0,1-.11-.29.64.64,0,0,1-.58.38.44.44,0,0,1-.32-.12.49.49,0,0,1-.13-.33c0-.39.34-.63,1-.7v-.1a3,3,0,0,0,0-.57v0a.32.32,0,0,0-.34-.24.32.32,0,0,0-.24.09.24.24,0,0,0-.1.17s0,.05.12.06.16.08.16.21a.27.27,0,0,1-.06.17.28.28,0,0,1-.18.06.29.29,0,0,1-.22-.08.26.26,0,0,1-.09-.21.48.48,0,0,1,.2-.36.82.82,0,0,1,.53-.16,1,1,0,0,1,.68.17.68.68,0,0,1,.15.5v.8c0,.16,0,.25,0,.27s.06.2.13.2a.34.34,0,0,0,.2-.11l0,0S54.74,15.44,54.74,15.46Zm-1-.56v-.23a.49.49,0,0,0-.45.52c0,.22.08.32.22.32a.17.17,0,0,0,.18-.14A1.35,1.35,0,0,0,53.76,14.9Z"/><path class="cls-2" d="M56.4,15.41a.21.21,0,0,1-.09.13.87.87,0,0,1-.64.22.56.56,0,0,1-.49-.18.27.27,0,0,1,0-.13s0-.15,0-.31v-.23a1.15,1.15,0,0,0,0-.19v-.85c0-.06,0-.09,0-.1H55c-.09,0-.14,0-.14,0s0,0,0,0a1,1,0,0,0,.76-.47c0-.05,0-.07.06-.07s0,0,0,.07a1.41,1.41,0,0,0,0,.43.38.38,0,0,0,.23,0,1,1,0,0,0,.28,0h0s0,0,0,0,0,.07-.06.07h-.49v.1c0,.83,0,1.32,0,1.46s.12.27.26.27a.45.45,0,0,0,.26-.14c.05,0,.08-.07.1-.07S56.4,15.39,56.4,15.41Z"/><path class="cls-2" d="M58,15.68s0,0,0,0H56.79s0,0,0,0,0,0,.1,0a.4.4,0,0,0,.19,0s0-.08,0-.19V14.09a.45.45,0,0,0,0-.22s-.08,0-.19,0h-.11s0,0,0,0,0,0,.07,0a2.47,2.47,0,0,0,.88-.16,1.51,1.51,0,0,1,0,.31v1.47a.38.38,0,0,0,0,.22.45.45,0,0,0,.24,0S58,15.66,58,15.68Zm-.33-3a.32.32,0,0,1-.09.23.31.31,0,0,1-.44-.44.36.36,0,0,1,.23-.08.33.33,0,0,1,.22.08A.28.28,0,0,1,57.68,12.71Z"/><path class="cls-2" d="M60.51,14.72a1,1,0,0,1-.39.8,1.06,1.06,0,0,1-.68.25,1,1,0,0,1-.76-.32,1,1,0,0,1-.32-.74,1,1,0,0,1,.32-.77,1,1,0,0,1,.77-.31,1,1,0,0,1,.75.32A1.09,1.09,0,0,1,60.51,14.72Zm-.71,0a2.47,2.47,0,0,0-.08-.8c-.06-.15-.15-.23-.28-.23s-.22.08-.28.25a1.77,1.77,0,0,0-.11.69,2.3,2.3,0,0,0,.12.87.32.32,0,0,0,.28.2c.14,0,.24-.09.29-.26A3.32,3.32,0,0,0,59.8,14.72Z"/><path class="cls-2" d="M63.27,15.68s0,0-.12,0h-1s-.07,0-.07,0,0,0,.06,0h0a.22.22,0,0,0,.14,0,.67.67,0,0,0,0-.21V14.5a1.58,1.58,0,0,0-.07-.6.23.23,0,0,0-.2-.08.32.32,0,0,0-.23.09.29.29,0,0,0-.09.22v1.41a.1.1,0,0,0,0,.08l.15,0s0,0,0,0,0,0,0,0H60.85a0,0,0,0,1-.05,0s.05,0,.14,0,.15,0,.17-.06V14.45a3.59,3.59,0,0,0,0-.47c0-.05,0-.07-.13-.07h-.15s-.08,0-.08,0,0,0,.06,0a1.77,1.77,0,0,0,.83-.22.06.06,0,0,1,0,0s0,0,0,.07V14a.75.75,0,0,1,.63-.32.51.51,0,0,1,.53.28.91.91,0,0,1,.06.26c0,.09,0,.29,0,.6v.67a.31.31,0,0,0,0,.18.32.32,0,0,0,.15,0C63.22,15.64,63.27,15.65,63.27,15.68Z"/></g></g></g></svg>